<svg xmlns="http://www.w3.org/2000/svg" xmlns:xlink="http://www.w3.org/1999/xlink" viewBox="0 0 809.12 361.57"><defs><style>.cls-1,.cls-13{fill:#f2b27e;}.cls-2{isolation:isolate;}.cls-3,.cls-4,.cls-9{fill:none;stroke-linecap:round;stroke-linejoin:round;}.cls-3,.cls-4{stroke:#000;}.cls-3,.cls-4,.cls-5,.cls-9{stroke-width:0.5px;}.cls-4{stroke-dasharray:1.99 3.99;}.cls-20,.cls-5{fill:#fff;}.cls-5{stroke:#999;stroke-miterlimit:10;}.cls-6{fill:#f9ba53;}.cls-7{fill:#ffb3cc;}.cls-21,.cls-8{fill:#5e4028;}.cls-9{stroke:#333;}.cls-10{fill:#cc4c66;}.cls-11{fill:#ff8099;}.cls-12{fill:#e56680;}.cls-13{opacity:0.7;mix-blend-mode:multiply;}.cls-14{clip-path:url(#clip-path);}.cls-15{fill:url(#Degradado_sin_nombre_21);}.cls-16{fill:url(#Degradado_sin_nombre_21-2);}.cls-17{fill:url(#Degradado_sin_nombre_29);}.cls-18{clip-path:url(#clip-path-2);}.cls-19{fill:#d8714c;}.cls-21{mix-blend-mode:screen;}.cls-22{fill:#cc9864;}.cls-23{clip-path:url(#clip-path-3);}.cls-24{fill:url(#Degradado_sin_nombre_21-3);}.cls-25{fill:url(#Degradado_sin_nombre_21-4);}.cls-26{fill:url(#Degradado_sin_nombre_29-2);}.cls-27{fill:#991933;}</style><clipPath id="clip-path" transform="translate(-212.64 -515.68)"><path class="cls-1" d="M384.37,585.25c5.61,19.55-2.61,42.88-14.09,46.17-16.11,4.62-38.52-8-44.13-27.6s1.19-40.59,17.29-45.2S378.77,565.7,384.37,585.25Z"/></clipPath><radialGradient id="Degradado_sin_nombre_21" cx="431.14" cy="620.62" r="9.5" gradientTransform="translate(-237.51 136.39) rotate(-16)" gradientUnits="userSpaceOnUse"><stop offset="0" stop-color="#e89575"/><stop offset="1" stop-color="#f2b27e"/></radialGradient><radialGradient id="Degradado_sin_nombre_21-2" cx="468.19" cy="630.62" r="9.5" xlink:href="#Degradado_sin_nombre_21"/><linearGradient id="Degradado_sin_nombre_29" x1="457.15" y1="626.32" x2="454.93" y2="617.76" gradientTransform="translate(-237.51 136.39) rotate(-16)" gradientUnits="userSpaceOnUse"><stop offset="0" stop-color="#db8965"/><stop offset="1" stop-color="#f2b27e"/></linearGradient><clipPath id="clip-path-2" transform="translate(-212.64 -515.68)"><path d="M374.08,622.29c-.52-1.17.38-6.73-6.57-6.74-6.54,0-10,6.19-10,6.19S361.66,622.63,374.08,622.29Z"/></clipPath><clipPath id="clip-path-3" transform="translate(-212.64 -515.68)"><path class="cls-1" d="M885,559.1c-5.61,19.55,2.61,42.88,14.1,46.17,16.1,4.62,38.52-8,44.12-27.6S942,537.08,925.9,532.46,890.57,539.55,885,559.1Z"/></clipPath><radialGradient id="Degradado_sin_nombre_21-3" cx="647.76" cy="655.52" r="9.5" gradientTransform="matrix(-0.96, -0.28, -0.28, 0.96, 1724.71, 136.39)" xlink:href="#Degradado_sin_nombre_21"/><radialGradient id="Degradado_sin_nombre_21-4" cx="684.81" cy="665.52" r="9.5" gradientTransform="matrix(-0.96, -0.28, -0.28, 0.96, 1724.71, 136.39)" xlink:href="#Degradado_sin_nombre_21"/><linearGradient id="Degradado_sin_nombre_29-2" x1="673.78" y1="661.22" x2="671.55" y2="652.66" gradientTransform="matrix(-0.96, -0.28, -0.28, 0.96, 1724.71, 136.39)" xlink:href="#Degradado_sin_nombre_29"/></defs><title>login_img</title><g class="cls-2"><g id="Capa_2" data-name="Capa 2"><g id="Capa_1" data-name="Capa 1"><path class="cls-3" d="M925.19,548.85l-1-.32" transform="translate(-212.64 -515.68)"/><path class="cls-4" d="M920.41,547.42c-29.21-7.43-60.69,7.81-83.59,28.12-25.15,22.3-43.9,51.33-67.15,75.5-30.76,32-74.91,37.7-108.8,20.52-10.37-5.26-22.25-15.81-21.81-28.57.38-10.88,11.09-21,21.7-18.61,6,1.39,10.71,6.21,13.7,11.59,13.34,24-5.38,58.23-30.35,65.17-13.12,3.65-27.4,1.57-39.83-4S581.09,682.84,571.66,673c-30.41-31.63-37.82-79.68-70.35-109.6C483.44,547,459.18,538.73,435,536.7c-16.91-1.42-34.34.09-50,6.68-14.72,6.21-27.74,17.26-34.62,31.61" transform="translate(-212.64 -515.68)"/><path class="cls-3" d="M349.56,576.81c-.14.3-.27.61-.39.92" transform="translate(-212.64 -515.68)"/><path class="cls-5" d="M717.51,528.09h-186a42.67,42.67,0,0,0-42.67,42.67v18.59c0,.3,0,.59,0,.89-15.66,16.31-45.7,18.52-45.7,18.52,20.16,8,39.62,6.48,52.49,3.7A42.6,42.6,0,0,0,531.53,632h186a42.66,42.66,0,0,0,42.67-42.67V570.76A42.67,42.67,0,0,0,717.51,528.09Z" transform="translate(-212.64 -515.68)"/><circle class="cls-6" cx="338.77" cy="64.38" r="20.06"/><path d="M545.46,575.87a2.77,2.77,0,1,1-2.77-2.77A2.77,2.77,0,0,1,545.46,575.87Z" transform="translate(-212.64 -515.68)"/><circle cx="347.5" cy="60.19" r="2.77"/><path d="M540.57,581.92a10.85,10.85,0,1,0,21.69,0Z" transform="translate(-212.64 -515.68)"/><circle class="cls-6" cx="411.87" cy="64.38" r="20.06"/><path d="M618.57,575.87a2.78,2.78,0,1,1-2.78-2.77A2.78,2.78,0,0,1,618.57,575.87Z" transform="translate(-212.64 -515.68)"/><circle cx="420.6" cy="60.19" r="2.77"/><line class="cls-3" x1="422.72" y1="70.88" x2="401.03" y2="70.88"/><circle class="cls-6" cx="484.98" cy="64.38" r="20.06"/><path d="M691.67,575.87a2.78,2.78,0,1,1-2.77-2.77A2.77,2.77,0,0,1,691.67,575.87Z" transform="translate(-212.64 -515.68)"/><circle cx="493.7" cy="60.19" r="2.77"/><path class="cls-3" d="M705.93,590.23a8.31,8.31,0,1,0-16.62,0" transform="translate(-212.64 -515.68)"/><path class="cls-7" d="M232.14,662.44c-11.51,15.41-16.62,34.74-18.6,53.87-3.09,29.78,1.46,61.63,19.55,85.49,12.56,16.58,31,28.25,50.8,34.49s41.07,7.3,61.75,5.1c23.91-2.55,48.26-9.91,65.73-26.42s26.27-43.69,16.32-65.57c-10.41-22.92-36.37-33.34-57.36-47.24a154.49,154.49,0,0,1-32.64-29c-12.35-14.6-26-27.5-45.36-31.68C269.58,636.56,246.2,643.66,232.14,662.44Z" transform="translate(-212.64 -515.68)"/><path class="cls-3" d="M323.33,767a165.7,165.7,0,0,0-66.8-37.83" transform="translate(-212.64 -515.68)"/><path class="cls-3" d="M300.61,737.71A142.67,142.67,0,0,0,252,683" transform="translate(-212.64 -515.68)"/><path class="cls-3" d="M297.17,694.26a133.37,133.37,0,0,0-14.8-37.4" transform="translate(-212.64 -515.68)"/><path class="cls-8" d="M392.84,589.13c-.14-1.61-.33-3.21-.57-4.77-3.09-20.16-20-37.12-41-36.72a38.46,38.46,0,0,0-19.9,6.09c-7.36-.85-15,1.36-19.11,7.56-3.55,5.39-4.34,12.14-4.18,18.59s1.2,12.89.89,19.33c-.67,13.79-7.38,27.58-3.79,40.91C307.83,650,316,657.76,325.32,662s19.78,5.3,30,5.44c3.72.05,7.55,0,11-1.43,4.82-1.93,8.35-6.14,11.24-10.47a84.24,84.24,0,0,0,4.89-8.37,99.43,99.43,0,0,0,9.45-30.81,124.84,124.84,0,0,0,1.25-16.27C393.23,596.49,393.15,592.77,392.84,589.13Z" transform="translate(-212.64 -515.68)"/><path class="cls-1" d="M456.05,666.05a2.87,2.87,0,0,0,.52-2.53,9.67,9.67,0,0,0,1.95-2.24,3.27,3.27,0,0,0,.3-2.85,1.62,1.62,0,0,1-.19-.6,2.29,2.29,0,0,1,.11-.52,1.64,1.64,0,0,0-.82-1.65,4.27,4.27,0,0,0-1.87-.5c.1-1.94-3.49-1.38-4.45-.89a22.91,22.91,0,0,0-3.26,2.39c-3.64,2.68-8.33,3.35-12.81,3.94a3,3,0,0,1-1.16,0c-1.13-.31-.62-1.19-.06-1.79,2.32-2.47,5.72-3.74,8-6.28a1.71,1.71,0,0,0,.58-1.4c-.19-.88-1.4-1-2.3-.86-3.18.39-6.43.81-9.29,2.26-4.9,2.49-9.16,6.71-13,10.6-2.37,2.42-7.33,7-7.33,7l8.26,11.35s3.22-2.36,5.55-2.59,4.66-.63,7-.78a28.63,28.63,0,0,0,9.14-2,30.41,30.41,0,0,0,6.21-3.32l6.93-5A8.67,8.67,0,0,0,456.05,666.05Z" transform="translate(-212.64 -515.68)"/><path class="cls-9" d="M426,672a23.32,23.32,0,0,1,12.79-1.86" transform="translate(-212.64 -515.68)"/><path class="cls-9" d="M456.42,663.43c-1.41-.16-2.69.75-3.83,1.6a41.29,41.29,0,0,1-7.75,4.79" transform="translate(-212.64 -515.68)"/><path class="cls-9" d="M458.28,657.61c-2.22.15-4.08,1.65-5.85,3a72.2,72.2,0,0,1-8.52,5.64" transform="translate(-212.64 -515.68)"/><path class="cls-9" d="M455.55,655.25a12.89,12.89,0,0,0-4.36,2.63,40.28,40.28,0,0,1-8.15,4.88" transform="translate(-212.64 -515.68)"/><path class="cls-10" d="M361.32,641.46c5.73,1.52,11.05,4.48,13.58,9.91s8.54,32.13,8.54,32.13l28.48-17.17s2.67.74,7.75,4.92a10.7,10.7,0,0,1,3.75,10.1S397.65,713,380.08,717.22s-29.45-53.89-29.45-53.89S355.59,640,361.32,641.46Z" transform="translate(-212.64 -515.68)"/><path class="cls-11" d="M380.85,672.44c-2-8-4.51-18-6-21.07-2.53-5.43-7.85-8.39-13.58-9.91s-10.69,21.87-10.69,21.87,1.9,9.29,5.3,20.17c.82,0,1.64,0,2.46-.08A34.42,34.42,0,0,0,380.85,672.44Z" transform="translate(-212.64 -515.68)"/><path class="cls-3" d="M383.56,684a27.3,27.3,0,0,0-2.78,16.91" transform="translate(-212.64 -515.68)"/><path class="cls-1" d="M442.13,810.9a2.63,2.63,0,0,0,1.34-.2,2.82,2.82,0,0,0,.92-.93,22.7,22.7,0,0,1,8.51-7.12,14.31,14.31,0,0,1-4-6.25c-1.08-3.63-1-7.49-.82-11.27.06-1.31.24-3.47.5-6.23l-19.94-1.64c.23,4,.46,8.26.65,13,.14,3.35-1.2,11-2.31,16.91A38,38,0,0,0,442.13,810.9Z" transform="translate(-212.64 -515.68)"/><path class="cls-10" d="M435.35,817.21c6.18,1.44,12.35,2.88,18.59,4.06a22.34,22.34,0,0,0,6.41.57c1.29-3.62,3.07-7.34,6.15-9.52-3.93-2.31-8-4.7-10.07-6.48l-1-.88c-.89-.77-1.74-1.52-2.53-2.31a22.7,22.7,0,0,0-8.51,7.12,2.82,2.82,0,0,1-.92.93,2.63,2.63,0,0,1-1.34.2A38,38,0,0,1,427,807.13c-.08.4-.15.8-.23,1.18-.39,2.06-.73,3.83-.95,5.05a17.31,17.31,0,0,0,3.45,2A35.71,35.71,0,0,0,435.35,817.21Z" transform="translate(-212.64 -515.68)"/><path class="cls-12" d="M475.58,818.5c-1.14-1.48-5-3.79-9.08-6.18-3.08,2.18-4.86,5.9-6.15,9.52a22.34,22.34,0,0,1-6.41-.57c-6.24-1.18-12.41-2.62-18.59-4.06a35.71,35.71,0,0,1-6.1-1.83,17.31,17.31,0,0,1-3.45-2c-.15.82-.24,1.4-.25,1.61-.19,5.62,10.76,5.64,14.42,6.37,6,1.2,11.78,3.57,17.8,4.88,5.11,1.1,12.19,1.7,17.12-.48C478,824.36,477.4,820.86,475.58,818.5Z" transform="translate(-212.64 -515.68)"/><path class="cls-3" d="M433.31,802.92a7.45,7.45,0,0,0,3.65,5.14" transform="translate(-212.64 -515.68)"/><path class="cls-12" d="M318.65,747.86s6.85,22.33,40.57,20.83,62.06-28.58,62.06-28.58l5.23,57.52s3.34,3.6,11.94,4.17,12.42-3.3,12.42-3.3,13.34-98.22-7-103.46-70.75,25.48-70.75,25.48l-54.86,4.26Z" transform="translate(-212.64 -515.68)"/><path class="cls-1" d="M447.19,852.47a2.63,2.63,0,0,0,1.34-.2,2.82,2.82,0,0,0,.91-.94,22.54,22.54,0,0,1,8.45-7.19,14.38,14.38,0,0,1-4.05-6.22c-1.12-3.62-1.06-7.48-.92-11.27,0-1.3.21-3.47.45-6.22l-20-1.47c.27,4,.53,8.25.77,12.95.17,3.35-1.11,11-2.17,16.92A37.7,37.7,0,0,0,447.19,852.47Z" transform="translate(-212.64 -515.68)"/><path class="cls-10" d="M440.47,858.84c6.19,1.39,12.38,2.78,18.62,3.91a23.07,23.07,0,0,0,6.41.51c1.26-3.63,3-7.37,6.08-9.57-3.95-2.28-8.09-4.63-10.13-6.4l-1-.87c-.89-.76-1.75-1.5-2.55-2.28a22.54,22.54,0,0,0-8.45,7.19,2.82,2.82,0,0,1-.91.94,2.63,2.63,0,0,1-1.34.2A37.7,37.7,0,0,1,432,848.83c-.07.41-.14.81-.21,1.19-.38,2.07-.71,3.84-.92,5.06a17.9,17.9,0,0,0,3.48,2A35.64,35.64,0,0,0,440.47,858.84Z" transform="translate(-212.64 -515.68)"/><path class="cls-12" d="M480.71,859.79c-1.16-1.47-5-3.75-9.13-6.1-3.07,2.2-4.82,5.94-6.08,9.57a23.07,23.07,0,0,1-6.41-.51c-6.24-1.13-12.43-2.52-18.62-3.91a35.64,35.64,0,0,1-6.11-1.77,17.9,17.9,0,0,1-3.48-2,15.47,15.47,0,0,0-.23,1.61c-.15,5.62,10.8,5.54,14.47,6.24,6.05,1.15,11.81,3.48,17.84,4.73,5.12,1.06,12.21,1.6,17.12-.63C483.17,865.63,482.55,862.13,480.71,859.79Z" transform="translate(-212.64 -515.68)"/><path class="cls-3" d="M438.3,844.58a7.47,7.47,0,0,0,3.69,5.1" transform="translate(-212.64 -515.68)"/><path class="cls-12" d="M299.6,758.84s11.6,20.75,43.06,23.68S417,763,417,763s-2.81,7,.81,27.33S431,836.91,431,836.91s2.47,4.23,11.43,4.26,12.33-4.77,12.33-4.77,3.14-88-4.48-100.37-96.22-4.54-96.22-4.54l-54.85,4.27Z" transform="translate(-212.64 -515.68)"/><path class="cls-3" d="M311.69,758.72s12.55,17.64,35.9,18.25S418.8,756.4,418.8,756.4s-1.74,43.11,17.68,84" transform="translate(-212.64 -515.68)"/><path class="cls-3" d="M416.62,759.27l6.14-7.46" transform="translate(-212.64 -515.68)"/><path class="cls-3" d="M327.92,771.82a32.52,32.52,0,0,0,1.17-21.43" transform="translate(-212.64 -515.68)"/><path class="cls-3" d="M377.28,725l-4.13,4.62c23.8-2.11,72-2,77.16,6.45,1.78,2.88,3.28,11.18,4.24,21.26" transform="translate(-212.64 -515.68)"/><path class="cls-3" d="M373.46,729.25s-2.53-.74-13.88-.87" transform="translate(-212.64 -515.68)"/><path class="cls-3" d="M375.87,726.62s-2.54-.74-13.89-.88" transform="translate(-212.64 -515.68)"/><path class="cls-1" d="M346,651s6.95-4.84,7.91-12.71a3.36,3.36,0,0,1-1.59-1.86c-.89-3.66,3.21-14.65,3.21-14.65l-18.35-8.16s0,12.76-4.61,16.91a8,8,0,0,1-3.08,1.5C330.57,635,335,645.21,346,651Z" transform="translate(-212.64 -515.68)"/><path class="cls-13" d="M355.52,621.77l-18.35-8.16a49.39,49.39,0,0,1-.88,8.6c3,6.44,8.95,16.31,16.15,14.52a1.69,1.69,0,0,1-.13-.31C351.42,632.76,355.52,621.77,355.52,621.77Z" transform="translate(-212.64 -515.68)"/><path class="cls-10" d="M372.88,720.27l-8.72-8.15-5.84-5.46c-.83-.77-1.63-1.56-2.47-2.31s-2.51-1.17-1.29-2.58a3.37,3.37,0,0,0,.64-.87c.2-.51-.24-.92-.15-1.3s.32-.4.46-.64a13.74,13.74,0,0,1,1.1-1.32,37.46,37.46,0,0,0,2.37-3.35,47,47,0,0,0,4.76-10.15c4.14-12.31,5.66-33.16,3-38.42-2.14-4.21-9.53-5.3-12.84-7.44C352.94,646.15,346,651,346,651c-11-5.78-15.42-16-16.51-19-7.29,2.18-22.45,1.63-27.89,9.34-6.42,9.09-12.88,61.91-11.37,84.27s9.38,33.21,9.38,33.21,16.26,5.1,37.52-5.7,36-32.62,36-32.62Z" transform="translate(-212.64 -515.68)"/><path class="cls-11" d="M323.94,684.35c3.1-.59,6.14-1.47,9.27-1.85,8.35-1,16.79,1.52,25.18.92a32.63,32.63,0,0,0,5.9-1c3.72-12.45,5-31.68,2.45-36.7-2.14-4.21-9.53-5.3-12.84-7.44C352.94,646.15,346,651,346,651c-11-5.78-15.42-16-16.51-19-7.29,2.18-22.45,1.63-27.89,9.34-3.4,4.81-6.8,21.86-9,40.17C302.65,685,313.5,686.35,323.94,684.35Z" transform="translate(-212.64 -515.68)"/><path class="cls-3" d="M341.52,694.78a34.46,34.46,0,0,1-25.93,5.58" transform="translate(-212.64 -515.68)"/><path class="cls-3" d="M352.22,703a116.87,116.87,0,0,1-31.51,7.9" transform="translate(-212.64 -515.68)"/><path class="cls-3" d="M373.15,720.52l-.27-.25-8.72-8.15-5.84-5.46c-.83-.77-1.63-1.56-2.47-2.31s-2.51-1.17-1.29-2.58a3.37,3.37,0,0,0,.64-.87c.2-.51-.24-.92-.15-1.3s.32-.4.46-.64a13.74,13.74,0,0,1,1.1-1.32,37.46,37.46,0,0,0,2.37-3.35,47,47,0,0,0,4.76-10.15,96.79,96.79,0,0,0,4.1-22.55" transform="translate(-212.64 -515.68)"/><path class="cls-1" d="M386.32,755.86l8.65.82a8.49,8.49,0,0,0,2.71,0,3,3,0,0,0,2.1-1.58,10.3,10.3,0,0,0,3-.4,3.35,3.35,0,0,0,2.14-2,1.81,1.81,0,0,1,.25-.59,3,3,0,0,1,.45-.32,1.66,1.66,0,0,0,.47-1.8,4.21,4.21,0,0,0-1.1-1.64,1.32,1.32,0,0,0,.06-1.54,3.07,3.07,0,0,0-1.74-1.33,9.2,9.2,0,0,0-2.22-.37l-4.36-.37a21.21,21.21,0,0,1-3.37-.48,16.21,16.21,0,0,1-5.76-3c-.82-.61-1.58-1.3-2.43-1.85-.52-.32-1.23-.76-1.16-1.49s1.11-1.22,1.95-1.31c3.43-.33,6.88,1,10.3.55a1.73,1.73,0,0,0,1.37-.68c.45-.81-.41-1.69-1.17-2.2-2.69-1.83-5.45-3.69-8.61-4.5-5.41-1.38-11.48-1-17-.6-3,.23-6,.65-8.93.66l-2.77,13.68c4.75,1.59,8.65,4.68,12.95,7.17a40.21,40.21,0,0,0,7.27,3.58A30.77,30.77,0,0,0,386.32,755.86Z" transform="translate(-212.64 -515.68)"/><path class="cls-9" d="M404.61,748.37a48.92,48.92,0,0,1-13.35-.16" transform="translate(-212.64 -515.68)"/><path class="cls-9" d="M404.66,752.15a60,60,0,0,1-14.78-1" transform="translate(-212.64 -515.68)"/><path class="cls-9" d="M399.23,754.79a68.59,68.59,0,0,1-11.44-1" transform="translate(-212.64 -515.68)"/><path class="cls-10" d="M320.32,636.57c-10.84-3.27-21.05,1.31-24.16,16.45s-5.29,47.79,1.43,60.84,60.52,30.51,60.52,30.51,4.35-3.19,5.46-8.15-1.79-6.61-1.79-6.61l-1.43-1.09-9.54-7.26-13.05-9.92c-.69-.53-10.55-7.89-10.46-8a6.2,6.2,0,0,0,.55-1,.42.42,0,0,0,0-.15.31.31,0,0,0-.08-.15c-.37-.47-1.16-1.16-1.14-1.75a3,3,0,0,1,.26-.66c.21-.54-.26-20,.12-25.17q.54-7.31,1.07-14.62l.48-6.52S331.17,639.84,320.32,636.57Z" transform="translate(-212.64 -515.68)"/><path class="cls-11" d="M327.05,674.48q.54-7.31,1.07-14.62l.48-6.52s2.57-13.5-8.28-16.77-21.05,1.31-24.16,16.45a174.27,174.27,0,0,0-2.93,28.74c9.9,3.29,20.5,4.54,30.71,2.59,1-.19,2-.4,3-.63C326.89,679.83,326.92,676.27,327.05,674.48Z" transform="translate(-212.64 -515.68)"/><path class="cls-3" d="M325.52,702.5a18.88,18.88,0,0,0-7.16,2" transform="translate(-212.64 -515.68)"/><path class="cls-3" d="M294.49,661.6c-2.27,17.12-2.9,40.61,3.1,52.26,1.86,3.61,7.41,7.49,14.46,11.2l5.62,3.21c17.75,8.73,40.44,16.1,40.44,16.1a13,13,0,0,0,1-.88" transform="translate(-212.64 -515.68)"/><path class="cls-3" d="M361.78,729.61l-1.43-1.09-9.54-7.26-13.05-9.92c-.69-.53-10.55-7.89-10.46-8a6.2,6.2,0,0,0,.55-1,.42.42,0,0,0,0-.15.31.31,0,0,0-.08-.15c-.37-.47-1.16-1.16-1.14-1.75a3,3,0,0,1,.26-.66c.21-.54-.26-20,.12-25.17q.54-7.31,1.07-14.62" transform="translate(-212.64 -515.68)"/><path class="cls-1" d="M384.37,585.25c5.61,19.55-2.61,42.88-14.09,46.17-16.11,4.62-38.52-8-44.13-27.6s1.19-40.59,17.29-45.2S378.77,565.7,384.37,585.25Z" transform="translate(-212.64 -515.68)"/><g class="cls-14"><path class="cls-15" d="M338.85,616.79A9.5,9.5,0,1,0,345.37,605,9.51,9.51,0,0,0,338.85,616.79Z" transform="translate(-212.64 -515.68)"/><path class="cls-16" d="M377.22,616.19a9.5,9.5,0,1,0,6.52-11.75A9.51,9.51,0,0,0,377.22,616.19Z" transform="translate(-212.64 -515.68)"/></g><path d="M363.09,600.21a3.38,3.38,0,1,1-4.18-2.32A3.37,3.37,0,0,1,363.09,600.21Z" transform="translate(-212.64 -515.68)"/><path d="M381.73,599.8a3.38,3.38,0,1,1-4.18-2.32A3.37,3.37,0,0,1,381.73,599.8Z" transform="translate(-212.64 -515.68)"/><path class="cls-3" d="M355.42,598.67a6,6,0,0,1,7.67.87" transform="translate(-212.64 -515.68)"/><path class="cls-3" d="M374.74,598.35a4.91,4.91,0,0,1,6.8.49" transform="translate(-212.64 -515.68)"/><path class="cls-17" d="M372.22,600.22a5.55,5.55,0,0,0,1.33,5.55c.84.83,2,1.41,2.49,2.45a3.4,3.4,0,0,1-.12,3.07,6,6,0,0,1-2.23,2.23,4.88,4.88,0,0,1-4.77-2.33c-1.91-2.87-1.23-7.4-.12-10.27S372.22,600.22,372.22,600.22Z" transform="translate(-212.64 -515.68)"/><path class="cls-3" d="M372.22,600.22a5.55,5.55,0,0,0,1.33,5.55c.84.83,2,1.41,2.49,2.45a3.4,3.4,0,0,1-.12,3.07,6,6,0,0,1-2.23,2.23" transform="translate(-212.64 -515.68)"/><path d="M374.08,622.29c-.52-1.17.38-6.73-6.57-6.74-6.54,0-10,6.19-10,6.19S361.66,622.63,374.08,622.29Z" transform="translate(-212.64 -515.68)"/><g class="cls-18"><path class="cls-19" d="M373.1,626c-.75,3-6.88,4-13.7,2.35s-11.76-5.5-11-8.49,6.88-4.05,13.7-2.36S373.84,623,373.1,626Z" transform="translate(-212.64 -515.68)"/><path class="cls-20" d="M356.88,617.92s11.86,1.17,15.76.94,5.91-4.94,5.91-4.94l-20.64-1.25Z" transform="translate(-212.64 -515.68)"/></g><path class="cls-8" d="M365,593.34a15.74,15.74,0,0,0-3.72-2.73,8.58,8.58,0,0,0-4.2-1,10.44,10.44,0,0,0-4.24,1.08,32.2,32.2,0,0,0-4,2.38,12.42,12.42,0,0,1,3.48-3.37,10.36,10.36,0,0,1,2.24-1.1,9.32,9.32,0,0,1,2.52-.44,8.08,8.08,0,0,1,4.81,1.48A9.17,9.17,0,0,1,365,593.34Z" transform="translate(-212.64 -515.68)"/><path class="cls-8" d="M374.58,592.29a8.46,8.46,0,0,1,2.14-2.91,7.94,7.94,0,0,1,3.26-1.82,4.89,4.89,0,0,1,2-.15,4.11,4.11,0,0,1,1.88.77,4.73,4.73,0,0,1,1.83,3.2,7.35,7.35,0,0,0-2.45-2.21,3.94,3.94,0,0,0-2.89-.21,10.61,10.61,0,0,0-3,1.3A27.12,27.12,0,0,0,374.58,592.29Z" transform="translate(-212.64 -515.68)"/><path class="cls-8" d="M342.2,593c6.25-3.51,13.32-5.9,18.43-11,3.3-3.26,5.55-7.44,7.44-11.68-1.82,8.08-4.06,16.84-10.65,21.86-3.1,2.36-6.87,3.63-10.62,4.66a24.53,24.53,0,0,0,25.81-19.15A25.78,25.78,0,0,0,387.31,593a45.51,45.51,0,0,0-8.05-24.87c-10.52-14.63-31.79-20-47.27-9.92-11.88,7.76-14.87,22-11.14,35,.82,2.89,5.16,17.13,9.37,12.76,1.88-1.94,2.58-5.41,4.66-7.57A31.65,31.65,0,0,1,342.2,593Z" transform="translate(-212.64 -515.68)"/><path class="cls-1" d="M331.17,601.68c3.4,5.29,4.26,10.57.51,13s-10.7,1.05-14.1-4.24-3.12-11.54.64-13.95S327.77,596.39,331.17,601.68Z" transform="translate(-212.64 -515.68)"/><path class="cls-3" d="M315.79,599.53s7.44-.48,15.35,11" transform="translate(-212.64 -515.68)"/><path class="cls-8" d="M346,642.87c-2-4.11-5.43-7.28-8.5-10.65s-5.94-7.33-6.25-11.88L313.4,623.4c-1,6.33,1.93,12.64,5.55,17.94s8,10.17,10.47,16.11A28.08,28.08,0,0,1,331,673.68a15.64,15.64,0,0,0,4.41-8.06,11.37,11.37,0,0,1-.8,7.2c4.36-.16,8.31-3.05,10.56-6.79s3-8.21,3-12.58A24.7,24.7,0,0,0,346,642.87Z" transform="translate(-212.64 -515.68)"/><path class="cls-21" d="M351.15,561.88c-4.37,2-8.38,4.73-12.82,6.56a35.48,35.48,0,0,1-28.85-1.12,40.35,40.35,0,0,0-1.41,12.5c5.41,1.84,11.54,1.57,17.15.15,7.11-1.8,13.68-5.24,20.46-8s14.09-5,21.37-4.1c4.79.59,9.3,2.5,13.75,4.38a58.36,58.36,0,0,1,9.73,4.91,45.28,45.28,0,0,0-10.4-17.22A42.36,42.36,0,0,0,351.15,561.88Z" transform="translate(-212.64 -515.68)"/><line class="cls-3" x1="736.08" y1="275.61" x2="750.87" y2="361.32"/><line class="cls-3" x1="754.35" y1="244.02" x2="785.46" y2="325.24"/><line class="cls-3" x1="675.55" y1="251.98" x2="651.28" y2="335.51"/><line class="cls-3" x1="713.21" y1="225.29" x2="694.56" y2="310.24"/><path class="cls-7" d="M994.84,638.78c11.6,11.36,18.37,26.83,22.5,42.53,6.44,24.44,6.77,51.6-5.22,73.85-8.34,15.46-22.18,27.58-37.92,35.36s-33.32,11.41-50.86,12.25c-20.27,1-41.54-2-58.25-13.52s-27.58-33-22.12-52.58c5.72-20.47,26-32.53,41.74-46.84a130.94,130.94,0,0,0,23.47-28.45c8.41-13.78,18.1-26.31,33.73-32.3C960.25,622,980.68,624.93,994.84,638.78Z" transform="translate(-212.64 -515.68)"/><path class="cls-1" d="M799.6,841.36a7.46,7.46,0,0,1,2.09,7.95,38,38,0,0,0,15-2c0-.39-.06-.8-.1-1.22s-.06-.8-.1-1.22c-.48-6.09-1-13.92-.51-17.28.7-4.71,1.39-9,2-13l-20.26-.49c0,2.8-.08,5-.16,6.32-.24,3.83-.56,7.73-2.05,11.27a14.53,14.53,0,0,1-4.69,5.87l-.94.7a14.13,14.13,0,0,1,1.72,0A12.69,12.69,0,0,1,799.6,841.36Z" transform="translate(-212.64 -515.68)"/><path class="cls-10" d="M816.65,847.34a38,38,0,0,1-15,2,7.46,7.46,0,0,0-2.09-7.95,12.69,12.69,0,0,0-8-3.07,14.13,14.13,0,0,0-1.72,0c-.6.46-1.22.9-1.86,1.35l-1.11.78c-2.23,1.57-6.63,3.53-10.84,5.44s-8.5,3.88-9.81,5.25c-2.08,2.18-3.06,5.64-.08,7.36,4.73,2.74,11.92,2.89,17.2,2.33,6.2-.67,12.23-2.44,18.45-3,3.77-.34,14.8.82,15.21-4.86,0-.22,0-.81-.08-1.65C816.9,850.31,816.78,848.93,816.65,847.34Z" transform="translate(-212.64 -515.68)"/><path class="cls-3" d="M764.61,853.75a3.48,3.48,0,0,0,1.86,2.68c4.73,2.73,11.92,2.89,17.19,2.32,6.21-.66,12.24-2.44,18.46-3,3.48-.31,13.16.65,14.94-3.68" transform="translate(-212.64 -515.68)"/><path class="cls-3" d="M812.08,838.81a7.58,7.58,0,0,1-4.23,4.78" transform="translate(-212.64 -515.68)"/><path class="cls-3" d="M773.07,847.48c-.84.95-.32,2.57.73,3.29a6.38,6.38,0,0,0,3.67.78c8,0,16.06-1.14,24-2.31" transform="translate(-212.64 -515.68)"/><path class="cls-3" d="M796,849.72a15.07,15.07,0,0,0-11.18-8" transform="translate(-212.64 -515.68)"/><path class="cls-11" d="M901.62,618.18s-11.41,3.83-15.43,11.33-4.69,49.84-4.69,49.84l-27.2,17.89s-2.68,7.49,3,12.57c4.4,4.12,12.41,1.76,12.41,1.76s31.82-10.51,37.68-20.77,4.54-56,4.54-56Z" transform="translate(-212.64 -515.68)"/><path class="cls-3" d="M883.22,679.16a3.2,3.2,0,0,0,1.92,1.37,8.43,8.43,0,0,0,2.4.22,47.74,47.74,0,0,0,6.08-.48" transform="translate(-212.64 -515.68)"/><path class="cls-22" d="M934.54,727.8s-7.7,24.66-39.16,27.59-49,3.92-49,3.92-1.08,10.21-7,29.91-22.13,46-22.13,46-5.22,3.66-14,1.93S792.17,830,792.17,830s16.27-80.45,23.89-92.82,52.17-23.88,68.87-27,50-5.49,50-5.49Z" transform="translate(-212.64 -515.68)"/><path class="cls-1" d="M835.31,854.19a7.46,7.46,0,0,1,2.09,7.94,37.82,37.82,0,0,0,15-2c0-.4-.07-.8-.1-1.22s-.07-.81-.1-1.22c-.48-6.09-1-13.92-.51-17.28.7-4.72,1.39-9,2.05-13l-20.27-.5c0,2.81-.07,5-.15,6.33-.24,3.83-.57,7.73-2,11.27a14.46,14.46,0,0,1-4.7,5.86c-.3.24-.61.48-.93.71a14.1,14.1,0,0,1,1.72,0A12.69,12.69,0,0,1,835.31,854.19Z" transform="translate(-212.64 -515.68)"/><path class="cls-10" d="M852.36,860.17a37.82,37.82,0,0,1-15,2,7.46,7.46,0,0,0-2.09-7.94,12.69,12.69,0,0,0-8-3.07,14.1,14.1,0,0,0-1.72,0q-.9.68-1.86,1.35l-1.11.77c-2.23,1.58-6.63,3.54-10.84,5.45s-8.5,3.88-9.81,5.25c-2.09,2.17-3.06,5.64-.08,7.36,4.73,2.73,11.92,2.89,17.19,2.33,6.21-.67,12.24-2.44,18.46-3,3.76-.34,14.8.81,15.21-4.86,0-.22,0-.81-.08-1.66S852.49,861.76,852.36,860.17Z" transform="translate(-212.64 -515.68)"/><path class="cls-3" d="M800.32,866.58a3.48,3.48,0,0,0,1.86,2.68c4.72,2.73,11.92,2.89,17.19,2.32,6.21-.66,12.24-2.44,18.46-3,3.48-.31,13.16.65,14.94-3.68" transform="translate(-212.64 -515.68)"/><path class="cls-3" d="M847.79,851.63a7.58,7.58,0,0,1-4.23,4.79" transform="translate(-212.64 -515.68)"/><path class="cls-3" d="M808.78,860.31c-.85,1-.32,2.57.73,3.29a6.35,6.35,0,0,0,3.66.78c8.06,0,16.07-1.14,24-2.31" transform="translate(-212.64 -515.68)"/><path class="cls-3" d="M831.7,862.55a15.07,15.07,0,0,0-11.18-8" transform="translate(-212.64 -515.68)"/><path class="cls-22" d="M958.93,737.57s-11.6,20.75-43.06,23.69-49,3.91-49,3.91,1.28,7.08-1.62,27.43S852.73,845,852.73,845s-2.68,4.1-11.64,3.69S829,843.26,829,843.26s.89-91.71,8.5-104.08,68.87-29,68.87-29l52.9,4.27Z" transform="translate(-212.64 -515.68)"/><path class="cls-3" d="M865.8,763.38q-3-3.71-6.26-7.12" transform="translate(-212.64 -515.68)"/><path class="cls-3" d="M937.65,744c-2.3-3-4.69-6.29-5.18-10.08-.72-5.68,3-11,3.42-16.71" transform="translate(-212.64 -515.68)"/><path class="cls-3" d="M829.73,812.71c.95-27.88,3.08-65.88,7.79-73.53,4.89-7.94,31.87-17.62,50.57-23.53" transform="translate(-212.64 -515.68)"/><path class="cls-1" d="M907.84,621.42a8.73,8.73,0,0,0,5.35,3.72c3.92.87,7.9-1,11.28-3.22a65.56,65.56,0,0,0,11.85-9.81l-.23-.1a8,8,0,0,1-2.81-2c-3.93-4.8-2-17.41-2-17.41L911.89,598s2.4,11.48,1,15a3.26,3.26,0,0,1-1.84,1.6c-1,.47-2.7,1.06-4.55,1.75A8.64,8.64,0,0,0,907.84,621.42Z" transform="translate(-212.64 -515.68)"/><path class="cls-11" d="M962.27,625.41c-4.17-8.34-19-10.12-25.95-13.3a65.56,65.56,0,0,1-11.85,9.81c-3.38,2.17-7.36,4.09-11.28,3.22a8.73,8.73,0,0,1-5.35-3.72,8.64,8.64,0,0,1-1.37-5.14c-4.49,1.65-10.25,3.9-12.19,6.62-3.43,4.8,6.12,65.52,6.12,65.52s-11,22.47-11.11,22.55,10.87,10.11,32.13,20.91,37.51,5.69,37.51,5.69,7.87-10.86,9.38-33.21S967.26,635.37,962.27,625.41Z" transform="translate(-212.64 -515.68)"/><path class="cls-13" d="M911.89,598l19.36-5.32a49.36,49.36,0,0,0-.41,8.64c-4,5.91-11.29,14.78-18.15,11.93a1.69,1.69,0,0,0,.17-.29C914.29,609.45,911.89,598,911.89,598Z" transform="translate(-212.64 -515.68)"/><path class="cls-3" d="M905.06,689a24.54,24.54,0,0,0,8.14,1.78,98.14,98.14,0,0,0,22.2-.57" transform="translate(-212.64 -515.68)"/><path class="cls-3" d="M894.84,647c2,18.74,5.56,41.44,5.56,41.44l-6.24,12.72" transform="translate(-212.64 -515.68)"/><path class="cls-8" d="M963.34,550.48a13.8,13.8,0,0,0-7.11-9.8c2.33-4,.54-9.67-3.37-12.19A11.61,11.61,0,0,0,944.5,527a11.61,11.61,0,0,0-19-3.77c-3.27-4.49-8.53-7.82-14.07-7.57s-10.92,4.83-11,10.38a32.07,32.07,0,0,0-9.76-1.69c-3,0-6.42.5-8.36,2.85-2.6,3.16-1.42,7.85-.1,11.73a11.07,11.07,0,0,0-2.52,19.66c-2.69,4.29-3.28,10.23-.22,14.27a13.64,13.64,0,0,0,4.31,3.56c8.38,4.72,18.65,3.82,28.24,3.08,3.47-.27,7.2-.44,10.17,1.39,2.33,1.43,3.93,4,6.48,5a12.41,12.41,0,0,0,5,.57c3,0,6.1-.16,8.62-1.73a14.27,14.27,0,0,1,2.1-1.29,10.88,10.88,0,0,1,3-.48,15,15,0,0,0,12.4-20.93A13.8,13.8,0,0,0,963.34,550.48Z" transform="translate(-212.64 -515.68)"/><path class="cls-1" d="M885,559.1c-5.61,19.55,2.61,42.88,14.1,46.17,16.1,4.62,38.52-8,44.12-27.6S942,537.08,925.9,532.46,890.57,539.55,885,559.1Z" transform="translate(-212.64 -515.68)"/><g class="cls-23"><path class="cls-24" d="M930.49,590.63A9.5,9.5,0,1,1,924,578.88,9.5,9.5,0,0,1,930.49,590.63Z" transform="translate(-212.64 -515.68)"/><path class="cls-25" d="M892.12,590a9.5,9.5,0,1,1-6.52-11.75A9.51,9.51,0,0,1,892.12,590Z" transform="translate(-212.64 -515.68)"/></g><path class="cls-3" d="M908.29,590.39s-2.22,3.58-6.14,3.58a6.64,6.64,0,0,1-5.65-3.05" transform="translate(-212.64 -515.68)"/><path d="M906.58,574a3.38,3.38,0,1,0,4.17-2.32A3.38,3.38,0,0,0,906.58,574Z" transform="translate(-212.64 -515.68)"/><path d="M887.72,573.61a3.38,3.38,0,1,0,4.18-2.31A3.37,3.37,0,0,0,887.72,573.61Z" transform="translate(-212.64 -515.68)"/><path class="cls-8" d="M904.37,567.19a15.74,15.74,0,0,1,3.72-2.73,8.62,8.62,0,0,1,4.2-1,10.54,10.54,0,0,1,4.25,1.09,32.83,32.83,0,0,1,4,2.38,12.38,12.38,0,0,0-3.47-3.37,10.67,10.67,0,0,0-2.25-1.1,9.73,9.73,0,0,0-2.52-.45,8.16,8.16,0,0,0-4.81,1.49A9.17,9.17,0,0,0,904.37,567.19Z" transform="translate(-212.64 -515.68)"/><path class="cls-8" d="M894.77,566.14a8.61,8.61,0,0,0-2.15-2.91,7.88,7.88,0,0,0-3.26-1.82,5.07,5.07,0,0,0-2-.16,4.15,4.15,0,0,0-1.87.78,4.65,4.65,0,0,0-1.83,3.19,7.36,7.36,0,0,1,2.45-2.21,4,4,0,0,1,2.88-.2,10.61,10.61,0,0,1,3,1.3A26.81,26.81,0,0,1,894.77,566.14Z" transform="translate(-212.64 -515.68)"/><path class="cls-3" d="M913.92,572.51a6,6,0,0,0-7.67.87" transform="translate(-212.64 -515.68)"/><path class="cls-3" d="M894.6,572.2a4.91,4.91,0,0,0-6.8.49" transform="translate(-212.64 -515.68)"/><path class="cls-26" d="M897.12,574.07a5.5,5.5,0,0,1-1.33,5.55c-.83.82-1.95,1.4-2.49,2.45a3.38,3.38,0,0,0,.12,3.06,5.83,5.83,0,0,0,2.23,2.23,4.88,4.88,0,0,0,4.77-2.32c1.91-2.87,1.23-7.4.12-10.27S897.12,574.07,897.12,574.07Z" transform="translate(-212.64 -515.68)"/><path class="cls-3" d="M897.12,574.07a5.5,5.5,0,0,1-1.33,5.55c-.83.82-1.95,1.4-2.49,2.45a3.38,3.38,0,0,0,.12,3.06,5.83,5.83,0,0,0,2.23,2.23" transform="translate(-212.64 -515.68)"/><path class="cls-8" d="M938.35,567.78a11.06,11.06,0,0,1-7.86-5.94,19.67,19.67,0,0,1-2-9.93,11.36,11.36,0,0,1-11.29-8.6,18.52,18.52,0,0,1-18.92,6.15,20,20,0,0,1-17.39,10.46c.19-4.13,2.06-8,4.28-11.49a46.06,46.06,0,0,1,16.46-15.89,34.38,34.38,0,0,1,22.34-4,27.43,27.43,0,0,1,18.62,12.5,36.2,36.2,0,0,1,4,10.72c1.5,6.67,1.95,13.9-.24,20.48-1,3-2.18,7-5.43,3.82A9,9,0,0,1,938.35,567.78Z" transform="translate(-212.64 -515.68)"/><path class="cls-1" d="M938.17,575.53c-3.4,5.29-4.26,10.56-.51,13s10.7,1,14.1-4.24,3.12-11.54-.63-13.95S941.57,570.24,938.17,575.53Z" transform="translate(-212.64 -515.68)"/><path class="cls-3" d="M953.55,573.38s-7.44-.48-15.35,11" transform="translate(-212.64 -515.68)"/><path class="cls-21" d="M963.34,550.48a13.58,13.58,0,0,0-2.05-5.14c-11.76-7.8-26.2-11.24-40.38-11.43-5.31-.07-10.74.27-15.84-1.25-4.12-1.23-8.06-4-9.78-7.86a30.86,30.86,0,0,0-4.61-.42c-3,0-6.42.5-8.36,2.85a7.48,7.48,0,0,0-1.54,5.12c4.53,4.12,11.19,5.75,17.44,5.89,7.45.17,14.87-1.34,22.31-1a44.06,44.06,0,0,1,20.13,6.08c7.72,4.56,13.78,11.32,19.41,18.36A13.81,13.81,0,0,0,963.34,550.48Z" transform="translate(-212.64 -515.68)"/><path class="cls-1" d="M847.63,704.87c-1.47.88-2.91,1.83-4.32,2.81-1.64,1.14-3.3,2.25-4.85,3.51a20.48,20.48,0,0,0-4.17,4c-.64.92-1.48,2.5-.86,3.61.1.18.43.38.42.59s-.62.79-.74,1.1a2.58,2.58,0,0,0,.44,2.6,2,2,0,0,0-.71,1.56,1.54,1.54,0,0,0,1.27,1.17c.62.12,1.33-.2,1.91.07.75.34,1,1.07,1.94,1.05a4.92,4.92,0,0,0,2.24-.82,79.92,79.92,0,0,1,15.07-6.84c3.68-1.16,7.74-2,10.63-4.61,2.51-2.33,5.93-8,5.93-8a7.36,7.36,0,0,0-.76-5.37,9.48,9.48,0,0,0-4.45-3.88s-7.06,3.27-9.42,3.61A26.14,26.14,0,0,0,847.63,704.87Z" transform="translate(-212.64 -515.68)"/><path class="cls-9" d="M846.9,719.87a31.25,31.25,0,0,1-1.33-3.09" transform="translate(-212.64 -515.68)"/><path class="cls-9" d="M846.25,718.89a42.16,42.16,0,0,0-10.79,6.44" transform="translate(-212.64 -515.68)"/><path class="cls-9" d="M843,717.22a46,46,0,0,0-9.09,5.68" transform="translate(-212.64 -515.68)"/><path class="cls-9" d="M841.31,714.87a50.52,50.52,0,0,0-7,4.44" transform="translate(-212.64 -515.68)"/><path class="cls-9" d="M850,705.55a39,39,0,0,0-3.33,3.73c-1.48,1.85-3.63,3.05-5,5-.51.7-.87,1.73-.31,2.4a2,2,0,0,0,1.39.57c2.58.19,4.73-1.26,6.66-2.77a9.59,9.59,0,0,1,4.2-2c2.8-.59,5.19-1.25,7.06-3.6" transform="translate(-212.64 -515.68)"/><path class="cls-11" d="M856.33,672.69H839.39l-4.72-10a1.09,1.09,0,0,1,1-1.56H850.2a1.09,1.09,0,0,1,1,.63Z" transform="translate(-212.64 -515.68)"/><path class="cls-27" d="M891,727.71h-38.6a3.15,3.15,0,0,1-2.86-1.81l-26.32-55.79a3.16,3.16,0,0,1,2.85-4.51h38.61a3.17,3.17,0,0,1,2.86,1.81l26.32,55.8A3.15,3.15,0,0,1,891,727.71Z" transform="translate(-212.64 -515.68)"/><path class="cls-1" d="M913.48,705.76c-3,0-5.89-.31-8.94-.48-5.52-.3-11.6-.55-17,1a15.14,15.14,0,0,0-1.48.5l3,6.28h.55c.85.07,1.88.42,2,1.26s-.62,1.19-1.13,1.53l-.06,0c-.82.55-1.55,1.24-2.33,1.85a16.24,16.24,0,0,1-5.7,3.16,22.42,22.42,0,0,1-3.36.55l-4.36.45a9.6,9.6,0,0,0-2.2.41,3.1,3.1,0,0,0-1.72,1.37,1.33,1.33,0,0,0,.09,1.54,4.25,4.25,0,0,0-1.06,1.66,2,2,0,0,0,0,.87,1.37,1.37,0,0,0,.54.92,2.83,2.83,0,0,1,.45.32,1.69,1.69,0,0,1,.26.58,3.34,3.34,0,0,0,2.18,1.93,10,10,0,0,0,3,.34,3,3,0,0,0,2.13,1.54,8.5,8.5,0,0,0,2.71,0l8.63-1a30.46,30.46,0,0,0,6.92-1.77,40.24,40.24,0,0,0,7.2-3.72c4.25-2.58,8.09-5.75,12.81-7.43Z" transform="translate(-212.64 -515.68)"/><path class="cls-9" d="M871.16,725.19a49.35,49.35,0,0,0,13.35-.42" transform="translate(-212.64 -515.68)"/><path class="cls-9" d="M871.19,729a59.87,59.87,0,0,0,14.75-1.26" transform="translate(-212.64 -515.68)"/><path class="cls-9" d="M876.67,731.5a68.4,68.4,0,0,0,11.42-1.21" transform="translate(-212.64 -515.68)"/><path class="cls-11" d="M949,616.33s15.32,2.22,19.84,17.1c4.66,14,9.74,45.43,3.28,58.61s-52.64,31.26-52.64,31.26-5.31-2.91-7.51-11.09c-1.32-4.91.68-7.62.68-7.62.47-.37,37-23.44,37-23.44s-3.84-23.26-6.26-41S949,616.33,949,616.33Z" transform="translate(-212.64 -515.68)"/><path class="cls-3" d="M968.59,696.59C955.93,709,919.46,723.3,919.46,723.3a14.33,14.33,0,0,1-3.85-3.56" transform="translate(-212.64 -515.68)"/><path class="cls-3" d="M912.05,705.76a5.41,5.41,0,0,1,.58-1.17c.47-.37,37-23.44,37-23.44s-2.84-17.23-5.18-33.36" transform="translate(-212.64 -515.68)"/><path class="cls-3" d="M951.59,681.28A21.12,21.12,0,0,0,962,680.4" transform="translate(-212.64 -515.68)"/><path class="cls-3" d="M948.73,617a19.33,19.33,0,0,0-4.59,9.28" transform="translate(-212.64 -515.68)"/></g></g></g></svg>